<?xml version="1.0" encoding="UTF-8"?>
<svg width="295px" height="78px" viewBox="0 0 295 78" version="1.1" xmlns="http://www.w3.org/2000/svg" xmlns:xlink="http://www.w3.org/1999/xlink">
    <!-- Generator: Sketch 43.2 (39069) - http://www.bohemiancoding.com/sketch -->
    <title>FACES</title>
    <desc>Created with Sketch.</desc>
    <defs>
        <path d="M16.6940177,77.1850278 L3,77.1850278 L3,4.2788493 L45.6250409,4.2788493 L45.6250409,16.6227525 L16.6940177,16.6227525 L16.6940177,32.8241255 L40.1281465,32.8241255 L40.1281465,45.2644655 L16.6940177,45.2644655 L16.6940177,77.1850278 Z M116.698921,77.1850278 L101.365479,77.1850278 L95.0006538,63.7803204 L61.9228506,63.7803204 L55.5580255,77.1850278 L40.3210199,77.1850278 L78.5099706,1 L116.698921,77.1850278 Z M95.0006538,63.7820726 L78.4135338,29.1595293 L61.9228506,63.7820726 L95.0006538,63.7820726 Z M176.682576,60.1157241 L182.950964,69.0843413 C176.296829,75.5456031 167.713959,78.8244524 156.527297,78.8244524 C133.189604,78.8244524 115.927427,61.3694018 115.927427,40.7319385 C115.927427,19.9980386 131.935927,2.5429879 155.273619,2.5429879 C171.282118,2.5429879 180.636483,10.6436744 182.372344,13.054593 L175.139588,22.5053939 C169.932004,17.58712 163.277869,14.8868911 154.598562,14.8868911 C140.42236,14.8868911 130.585812,25.9771167 130.585812,41.1176855 C130.585812,55.2938869 142.351095,66.4805492 156.623733,66.4805492 C167.810396,66.4805492 174.271657,62.3337692 176.682576,60.1157241 Z M240.23439,77.088591 L240.23439,64.6482511 L207.542334,64.6482511 L207.542334,44.7822818 L231.458647,44.7822818 L231.458647,32.3419418 L207.542334,32.3419418 L207.542334,16.6227525 L237.244851,16.6227525 L237.244851,4.2788493 L193.848316,4.2788493 L193.848316,77.088591 L240.23439,77.088591 Z M246.117032,68.4092841 C250.070938,72.5560641 260.486107,78.8244524 270.997712,78.8244524 C288.067015,78.8244524 298,68.7950311 298,57.511932 C298,31.7633213 265.307944,34.6564237 265.307944,21.8303367 C265.307944,16.815626 270.033344,14.6940177 274.951618,14.6940177 C279.869892,14.6940177 285.173913,17.3942465 288.934946,21.1552795 L295.589081,10.9329846 C294.14253,9.38999673 286.13828,2.44655116 274.855181,2.44655116 C262.704152,2.44655116 251.035306,9.38999673 251.035306,22.4089572 C251.035306,44.685845 283.438052,42.2749264 283.438052,57.7048055 C283.438052,63.0088264 279.484145,66.4805492 272.058516,66.4805492 C263.861393,66.4805492 257.014384,62.044459 253.253351,58.5727362 L246.117032,68.4092841 Z" id="path-1"></path>
    </defs>
    <g id="Page-1" stroke="none" stroke-width="1" fill="none" fill-rule="evenodd">
        <g id="Artboard" transform="translate(-3.000000, -1.000000)">
            <mask id="mask-2" fill="white">
                <use xlink:href="#path-1"></use>
            </mask>
            <use id="FACES" fill="#000000" xlink:href="#path-1"></use>
        </g>
    </g>
</svg>